<svg aria-roledescription="er" viewBox="0 0 192.2325439453125 484" style="max-width: 192.233px; background-color: white;" xmlns:xlink="http://www.w3.org/1999/xlink" xmlns="http://www.w3.org/2000/svg" width="100%" id="mermaid-0"><style>#mermaid-0{font-family:"trebuchet ms",verdana,arial,sans-serif;font-size:16px;fill:#000000;}#mermaid-0 .error-icon{fill:#552222;}#mermaid-0 .error-text{fill:#552222;stroke:#552222;}#mermaid-0 .edge-thickness-normal{stroke-width:2px;}#mermaid-0 .edge-thickness-thick{stroke-width:3.5px;}#mermaid-0 .edge-pattern-solid{stroke-dasharray:0;}#mermaid-0 .edge-pattern-dashed{stroke-dasharray:3;}#mermaid-0 .edge-pattern-dotted{stroke-dasharray:2;}#mermaid-0 .marker{fill:#000000;stroke:#000000;}#mermaid-0 .marker.cross{stroke:#000000;}#mermaid-0 svg{font-family:"trebuchet ms",verdana,arial,sans-serif;font-size:16px;}#mermaid-0 .entityBox{fill:#cde498;stroke:#13540c;}#mermaid-0 .attributeBoxOdd{fill:#ffffff;stroke:#13540c;}#mermaid-0 .attributeBoxEven{fill:#f2f2f2;stroke:#13540c;}#mermaid-0 .relationshipLabelBox{fill:hsl(78.1578947368, 58.4615384615%, 84.5098039216%);opacity:0.7;background-color:hsl(78.1578947368, 58.4615384615%, 84.5098039216%);}#mermaid-0 .relationshipLabelBox rect{opacity:0.5;}#mermaid-0 .relationshipLine{stroke:#000000;}#mermaid-0 .entityTitleText{text-anchor:middle;font-size:18px;fill:#000000;}#mermaid-0 :root{--mermaid-font-family:"trebuchet ms",verdana,arial,sans-serif;}</style><g/><defs><marker orient="auto" markerHeight="18" markerWidth="18" refY="9" refX="0" id="ONLY_ONE_START"><path d="M9,0 L9,18 M15,0 L15,18" fill="none" stroke="gray"/></marker></defs><defs><marker orient="auto" markerHeight="18" markerWidth="18" refY="9" refX="18" id="ONLY_ONE_END"><path d="M3,0 L3,18 M9,0 L9,18" fill="none" stroke="gray"/></marker></defs><defs><marker orient="auto" markerHeight="18" markerWidth="30" refY="9" refX="0" id="ZERO_OR_ONE_START"><circle r="6" cy="9" cx="21" fill="white" stroke="gray"/><path d="M9,0 L9,18" fill="none" stroke="gray"/></marker></defs><defs><marker orient="auto" markerHeight="18" markerWidth="30" refY="9" refX="30" id="ZERO_OR_ONE_END"><circle r="6" cy="9" cx="9" fill="white" stroke="gray"/><path d="M21,0 L21,18" fill="none" stroke="gray"/></marker></defs><defs><marker orient="auto" markerHeight="36" markerWidth="45" refY="18" refX="18" id="ONE_OR_MORE_START"><path d="M0,18 Q 18,0 36,18 Q 18,36 0,18 M42,9 L42,27" fill="none" stroke="gray"/></marker></defs><defs><marker orient="auto" markerHeight="36" markerWidth="45" refY="18" refX="27" id="ONE_OR_MORE_END"><path d="M3,9 L3,27 M9,18 Q27,0 45,18 Q27,36 9,18" fill="none" stroke="gray"/></marker></defs><defs><marker orient="auto" markerHeight="36" markerWidth="57" refY="18" refX="18" id="ZERO_OR_MORE_START"><circle r="6" cy="18" cx="48" fill="white" stroke="gray"/><path d="M0,18 Q18,0 36,18 Q18,36 0,18" fill="none" stroke="gray"/></marker></defs><defs><marker orient="auto" markerHeight="36" markerWidth="57" refY="18" refX="39" id="ZERO_OR_MORE_END"><circle r="6" cy="18" cx="9" fill="white" stroke="gray"/><path d="M21,18 Q39,0 57,18 Q39,36 21,18" fill="none" stroke="gray"/></marker></defs><g transform="translate(20,20 )" id="entity-Product-689791cd-8625-4530-8fb1-d7d39300c40d"><rect height="444" width="152.2325439453125" y="0" x="0" class="er entityBox"/><text style="dominant-baseline: middle; text-anchor: middle; font-size: 12px;" transform="translate(76.11627197265625,12)" y="0" x="0" id="text-entity-Product-689791cd-8625-4530-8fb1-d7d39300c40d" class="er entityLabel">Product</text><rect height="21" width="54.113128662109375" y="24" x="0" class="er attributeBoxOdd"/><text style="dominant-baseline: middle; font-size: 10.2px;" transform="translate(5,34.5)" y="0" x="0" id="text-entity-Product-689791cd-8625-4530-8fb1-d7d39300c40d-attr-1-type" class="er entityLabel">String</text><rect height="21" width="74.32443237304688" y="24" x="54.113128662109375" class="er attributeBoxOdd"/><text style="dominant-baseline: middle; font-size: 10.2px;" transform="translate(59.113128662109375,34.5)" y="0" x="0" id="text-entity-Product-689791cd-8625-4530-8fb1-d7d39300c40d-attr-1-name" class="er entityLabel">id</text><rect height="21" width="23.79498291015625" y="24" x="128.43756103515625" class="er attributeBoxOdd"/><text style="dominant-baseline: middle; font-size: 10.2px;" transform="translate(133.43756103515625,34.5)" y="0" x="0" id="text-entity-Product-689791cd-8625-4530-8fb1-d7d39300c40d-attr-1-key" class="er entityLabel">PK</text><rect height="21" width="54.113128662109375" y="45" x="0" class="er attributeBoxEven"/><text style="dominant-baseline: middle; font-size: 10.2px;" transform="translate(5,55.5)" y="0" x="0" id="text-entity-Product-689791cd-8625-4530-8fb1-d7d39300c40d-attr-2-type" class="er entityLabel">String</text><rect height="21" width="74.32443237304688" y="45" x="54.113128662109375" class="er attributeBoxEven"/><text style="dominant-baseline: middle; font-size: 10.2px;" transform="translate(59.113128662109375,55.5)" y="0" x="0" id="text-entity-Product-689791cd-8625-4530-8fb1-d7d39300c40d-attr-2-name" class="er entityLabel">productId</text><rect height="21" width="23.79498291015625" y="45" x="128.43756103515625" class="er attributeBoxEven"/><text style="dominant-baseline: middle; font-size: 10.2px;" transform="translate(133.43756103515625,55.5)" y="0" x="0" id="text-entity-Product-689791cd-8625-4530-8fb1-d7d39300c40d-attr-2-key" class="er entityLabel"/><rect height="21" width="54.113128662109375" y="66" x="0" class="er attributeBoxOdd"/><text style="dominant-baseline: middle; font-size: 10.2px;" transform="translate(5,76.5)" y="0" x="0" id="text-entity-Product-689791cd-8625-4530-8fb1-d7d39300c40d-attr-3-type" class="er entityLabel">String</text><rect height="21" width="74.32443237304688" y="66" x="54.113128662109375" class="er attributeBoxOdd"/><text style="dominant-baseline: middle; font-size: 10.2px;" transform="translate(59.113128662109375,76.5)" y="0" x="0" id="text-entity-Product-689791cd-8625-4530-8fb1-d7d39300c40d-attr-3-name" class="er entityLabel">productName</text><rect height="21" width="23.79498291015625" y="66" x="128.43756103515625" class="er attributeBoxOdd"/><text style="dominant-baseline: middle; font-size: 10.2px;" transform="translate(133.43756103515625,76.5)" y="0" x="0" id="text-entity-Product-689791cd-8625-4530-8fb1-d7d39300c40d-attr-3-key" class="er entityLabel"/><rect height="21" width="54.113128662109375" y="87" x="0" class="er attributeBoxEven"/><text style="dominant-baseline: middle; font-size: 10.2px;" transform="translate(5,97.5)" y="0" x="0" id="text-entity-Product-689791cd-8625-4530-8fb1-d7d39300c40d-attr-4-type" class="er entityLabel">String</text><rect height="21" width="74.32443237304688" y="87" x="54.113128662109375" class="er attributeBoxEven"/><text style="dominant-baseline: middle; font-size: 10.2px;" transform="translate(59.113128662109375,97.5)" y="0" x="0" id="text-entity-Product-689791cd-8625-4530-8fb1-d7d39300c40d-attr-4-name" class="er entityLabel">code</text><rect height="21" width="23.79498291015625" y="87" x="128.43756103515625" class="er attributeBoxEven"/><text style="dominant-baseline: middle; font-size: 10.2px;" transform="translate(133.43756103515625,97.5)" y="0" x="0" id="text-entity-Product-689791cd-8625-4530-8fb1-d7d39300c40d-attr-4-key" class="er entityLabel"/><rect height="21" width="54.113128662109375" y="108" x="0" class="er attributeBoxOdd"/><text style="dominant-baseline: middle; font-size: 10.2px;" transform="translate(5,118.5)" y="0" x="0" id="text-entity-Product-689791cd-8625-4530-8fb1-d7d39300c40d-attr-5-type" class="er entityLabel">String</text><rect height="21" width="74.32443237304688" y="108" x="54.113128662109375" class="er attributeBoxOdd"/><text style="dominant-baseline: middle; font-size: 10.2px;" transform="translate(59.113128662109375,118.5)" y="0" x="0" id="text-entity-Product-689791cd-8625-4530-8fb1-d7d39300c40d-attr-5-name" class="er entityLabel">reference</text><rect height="21" width="23.79498291015625" y="108" x="128.43756103515625" class="er attributeBoxOdd"/><text style="dominant-baseline: middle; font-size: 10.2px;" transform="translate(133.43756103515625,118.5)" y="0" x="0" id="text-entity-Product-689791cd-8625-4530-8fb1-d7d39300c40d-attr-5-key" class="er entityLabel"/><rect height="21" width="54.113128662109375" y="129" x="0" class="er attributeBoxEven"/><text style="dominant-baseline: middle; font-size: 10.2px;" transform="translate(5,139.5)" y="0" x="0" id="text-entity-Product-689791cd-8625-4530-8fb1-d7d39300c40d-attr-6-type" class="er entityLabel">DateTime</text><rect height="21" width="74.32443237304688" y="129" x="54.113128662109375" class="er attributeBoxEven"/><text style="dominant-baseline: middle; font-size: 10.2px;" transform="translate(59.113128662109375,139.5)" y="0" x="0" id="text-entity-Product-689791cd-8625-4530-8fb1-d7d39300c40d-attr-6-name" class="er entityLabel">releaseDate</text><rect height="21" width="23.79498291015625" y="129" x="128.43756103515625" class="er attributeBoxEven"/><text style="dominant-baseline: middle; font-size: 10.2px;" transform="translate(133.43756103515625,139.5)" y="0" x="0" id="text-entity-Product-689791cd-8625-4530-8fb1-d7d39300c40d-attr-6-key" class="er entityLabel"/><rect height="21" width="54.113128662109375" y="150" x="0" class="er attributeBoxOdd"/><text style="dominant-baseline: middle; font-size: 10.2px;" transform="translate(5,160.5)" y="0" x="0" id="text-entity-Product-689791cd-8625-4530-8fb1-d7d39300c40d-attr-7-type" class="er entityLabel">String</text><rect height="21" width="74.32443237304688" y="150" x="54.113128662109375" class="er attributeBoxOdd"/><text style="dominant-baseline: middle; font-size: 10.2px;" transform="translate(59.113128662109375,160.5)" y="0" x="0" id="text-entity-Product-689791cd-8625-4530-8fb1-d7d39300c40d-attr-7-name" class="er entityLabel">division</text><rect height="21" width="23.79498291015625" y="150" x="128.43756103515625" class="er attributeBoxOdd"/><text style="dominant-baseline: middle; font-size: 10.2px;" transform="translate(133.43756103515625,160.5)" y="0" x="0" id="text-entity-Product-689791cd-8625-4530-8fb1-d7d39300c40d-attr-7-key" class="er entityLabel"/><rect height="21" width="54.113128662109375" y="171" x="0" class="er attributeBoxEven"/><text style="dominant-baseline: middle; font-size: 10.2px;" transform="translate(5,181.5)" y="0" x="0" id="text-entity-Product-689791cd-8625-4530-8fb1-d7d39300c40d-attr-8-type" class="er entityLabel">String</text><rect height="21" width="74.32443237304688" y="171" x="54.113128662109375" class="er attributeBoxEven"/><text style="dominant-baseline: middle; font-size: 10.2px;" transform="translate(59.113128662109375,181.5)" y="0" x="0" id="text-entity-Product-689791cd-8625-4530-8fb1-d7d39300c40d-attr-8-name" class="er entityLabel">collection</text><rect height="21" width="23.79498291015625" y="171" x="128.43756103515625" class="er attributeBoxEven"/><text style="dominant-baseline: middle; font-size: 10.2px;" transform="translate(133.43756103515625,181.5)" y="0" x="0" id="text-entity-Product-689791cd-8625-4530-8fb1-d7d39300c40d-attr-8-key" class="er entityLabel"/><rect height="21" width="54.113128662109375" y="192" x="0" class="er attributeBoxOdd"/><text style="dominant-baseline: middle; font-size: 10.2px;" transform="translate(5,202.5)" y="0" x="0" id="text-entity-Product-689791cd-8625-4530-8fb1-d7d39300c40d-attr-9-type" class="er entityLabel">String</text><rect height="21" width="74.32443237304688" y="192" x="54.113128662109375" class="er attributeBoxOdd"/><text style="dominant-baseline: middle; font-size: 10.2px;" transform="translate(59.113128662109375,202.5)" y="0" x="0" id="text-entity-Product-689791cd-8625-4530-8fb1-d7d39300c40d-attr-9-name" class="er entityLabel">subCollection</text><rect height="21" width="23.79498291015625" y="192" x="128.43756103515625" class="er attributeBoxOdd"/><text style="dominant-baseline: middle; font-size: 10.2px;" transform="translate(133.43756103515625,202.5)" y="0" x="0" id="text-entity-Product-689791cd-8625-4530-8fb1-d7d39300c40d-attr-9-key" class="er entityLabel"/><rect height="21" width="54.113128662109375" y="213" x="0" class="er attributeBoxEven"/><text style="dominant-baseline: middle; font-size: 10.2px;" transform="translate(5,223.5)" y="0" x="0" id="text-entity-Product-689791cd-8625-4530-8fb1-d7d39300c40d-attr-10-type" class="er entityLabel">String</text><rect height="21" width="74.32443237304688" y="213" x="54.113128662109375" class="er attributeBoxEven"/><text style="dominant-baseline: middle; font-size: 10.2px;" transform="translate(59.113128662109375,223.5)" y="0" x="0" id="text-entity-Product-689791cd-8625-4530-8fb1-d7d39300c40d-attr-10-name" class="er entityLabel">type</text><rect height="21" width="23.79498291015625" y="213" x="128.43756103515625" class="er attributeBoxEven"/><text style="dominant-baseline: middle; font-size: 10.2px;" transform="translate(133.43756103515625,223.5)" y="0" x="0" id="text-entity-Product-689791cd-8625-4530-8fb1-d7d39300c40d-attr-10-key" class="er entityLabel"/><rect height="21" width="54.113128662109375" y="234" x="0" class="er attributeBoxOdd"/><text style="dominant-baseline: middle; font-size: 10.2px;" transform="translate(5,244.5)" y="0" x="0" id="text-entity-Product-689791cd-8625-4530-8fb1-d7d39300c40d-attr-11-type" class="er entityLabel">String</text><rect height="21" width="74.32443237304688" y="234" x="54.113128662109375" class="er attributeBoxOdd"/><text style="dominant-baseline: middle; font-size: 10.2px;" transform="translate(59.113128662109375,244.5)" y="0" x="0" id="text-entity-Product-689791cd-8625-4530-8fb1-d7d39300c40d-attr-11-name" class="er entityLabel">category</text><rect height="21" width="23.79498291015625" y="234" x="128.43756103515625" class="er attributeBoxOdd"/><text style="dominant-baseline: middle; font-size: 10.2px;" transform="translate(133.43756103515625,244.5)" y="0" x="0" id="text-entity-Product-689791cd-8625-4530-8fb1-d7d39300c40d-attr-11-key" class="er entityLabel"/><rect height="21" width="54.113128662109375" y="255" x="0" class="er attributeBoxEven"/><text style="dominant-baseline: middle; font-size: 10.2px;" transform="translate(5,265.5)" y="0" x="0" id="text-entity-Product-689791cd-8625-4530-8fb1-d7d39300c40d-attr-12-type" class="er entityLabel">String</text><rect height="21" width="74.32443237304688" y="255" x="54.113128662109375" class="er attributeBoxEven"/><text style="dominant-baseline: middle; font-size: 10.2px;" transform="translate(59.113128662109375,265.5)" y="0" x="0" id="text-entity-Product-689791cd-8625-4530-8fb1-d7d39300c40d-attr-12-name" class="er entityLabel">tissue</text><rect height="21" width="23.79498291015625" y="255" x="128.43756103515625" class="er attributeBoxEven"/><text style="dominant-baseline: middle; font-size: 10.2px;" transform="translate(133.43756103515625,265.5)" y="0" x="0" id="text-entity-Product-689791cd-8625-4530-8fb1-d7d39300c40d-attr-12-key" class="er entityLabel"/><rect height="21" width="54.113128662109375" y="276" x="0" class="er attributeBoxOdd"/><text style="dominant-baseline: middle; font-size: 10.2px;" transform="translate(5,286.5)" y="0" x="0" id="text-entity-Product-689791cd-8625-4530-8fb1-d7d39300c40d-attr-13-type" class="er entityLabel">String</text><rect height="21" width="74.32443237304688" y="276" x="54.113128662109375" class="er attributeBoxOdd"/><text style="dominant-baseline: middle; font-size: 10.2px;" transform="translate(59.113128662109375,286.5)" y="0" x="0" id="text-entity-Product-689791cd-8625-4530-8fb1-d7d39300c40d-attr-13-name" class="er entityLabel">tissueType</text><rect height="21" width="23.79498291015625" y="276" x="128.43756103515625" class="er attributeBoxOdd"/><text style="dominant-baseline: middle; font-size: 10.2px;" transform="translate(133.43756103515625,286.5)" y="0" x="0" id="text-entity-Product-689791cd-8625-4530-8fb1-d7d39300c40d-attr-13-key" class="er entityLabel"/><rect height="21" width="54.113128662109375" y="297" x="0" class="er attributeBoxEven"/><text style="dominant-baseline: middle; font-size: 10.2px;" transform="translate(5,307.5)" y="0" x="0" id="text-entity-Product-689791cd-8625-4530-8fb1-d7d39300c40d-attr-14-type" class="er entityLabel">String</text><rect height="21" width="74.32443237304688" y="297" x="54.113128662109375" class="er attributeBoxEven"/><text style="dominant-baseline: middle; font-size: 10.2px;" transform="translate(59.113128662109375,307.5)" y="0" x="0" id="text-entity-Product-689791cd-8625-4530-8fb1-d7d39300c40d-attr-14-name" class="er entityLabel">bulge</text><rect height="21" width="23.79498291015625" y="297" x="128.43756103515625" class="er attributeBoxEven"/><text style="dominant-baseline: middle; font-size: 10.2px;" transform="translate(133.43756103515625,307.5)" y="0" x="0" id="text-entity-Product-689791cd-8625-4530-8fb1-d7d39300c40d-attr-14-key" class="er entityLabel"/><rect height="21" width="54.113128662109375" y="318" x="0" class="er attributeBoxOdd"/><text style="dominant-baseline: middle; font-size: 10.2px;" transform="translate(5,328.5)" y="0" x="0" id="text-entity-Product-689791cd-8625-4530-8fb1-d7d39300c40d-attr-15-type" class="er entityLabel">String</text><rect height="21" width="74.32443237304688" y="318" x="54.113128662109375" class="er attributeBoxOdd"/><text style="dominant-baseline: middle; font-size: 10.2px;" transform="translate(59.113128662109375,328.5)" y="0" x="0" id="text-entity-Product-689791cd-8625-4530-8fb1-d7d39300c40d-attr-15-name" class="er entityLabel">pocket</text><rect height="21" width="23.79498291015625" y="318" x="128.43756103515625" class="er attributeBoxOdd"/><text style="dominant-baseline: middle; font-size: 10.2px;" transform="translate(133.43756103515625,328.5)" y="0" x="0" id="text-entity-Product-689791cd-8625-4530-8fb1-d7d39300c40d-attr-15-key" class="er entityLabel"/><rect height="21" width="54.113128662109375" y="339" x="0" class="er attributeBoxEven"/><text style="dominant-baseline: middle; font-size: 10.2px;" transform="translate(5,349.5)" y="0" x="0" id="text-entity-Product-689791cd-8625-4530-8fb1-d7d39300c40d-attr-16-type" class="er entityLabel">String</text><rect height="21" width="74.32443237304688" y="339" x="54.113128662109375" class="er attributeBoxEven"/><text style="dominant-baseline: middle; font-size: 10.2px;" transform="translate(59.113128662109375,349.5)" y="0" x="0" id="text-entity-Product-689791cd-8625-4530-8fb1-d7d39300c40d-attr-16-name" class="er entityLabel">colorCategory</text><rect height="21" width="23.79498291015625" y="339" x="128.43756103515625" class="er attributeBoxEven"/><text style="dominant-baseline: middle; font-size: 10.2px;" transform="translate(133.43756103515625,349.5)" y="0" x="0" id="text-entity-Product-689791cd-8625-4530-8fb1-d7d39300c40d-attr-16-key" class="er entityLabel"/><rect height="21" width="54.113128662109375" y="360" x="0" class="er attributeBoxOdd"/><text style="dominant-baseline: middle; font-size: 10.2px;" transform="translate(5,370.5)" y="0" x="0" id="text-entity-Product-689791cd-8625-4530-8fb1-d7d39300c40d-attr-17-type" class="er entityLabel">String</text><rect height="21" width="74.32443237304688" y="360" x="54.113128662109375" class="er attributeBoxOdd"/><text style="dominant-baseline: middle; font-size: 10.2px;" transform="translate(59.113128662109375,370.5)" y="0" x="0" id="text-entity-Product-689791cd-8625-4530-8fb1-d7d39300c40d-attr-17-name" class="er entityLabel">stamp</text><rect height="21" width="23.79498291015625" y="360" x="128.43756103515625" class="er attributeBoxOdd"/><text style="dominant-baseline: middle; font-size: 10.2px;" transform="translate(133.43756103515625,370.5)" y="0" x="0" id="text-entity-Product-689791cd-8625-4530-8fb1-d7d39300c40d-attr-17-key" class="er entityLabel"/><rect height="21" width="54.113128662109375" y="381" x="0" class="er attributeBoxEven"/><text style="dominant-baseline: middle; font-size: 10.2px;" transform="translate(5,391.5)" y="0" x="0" id="text-entity-Product-689791cd-8625-4530-8fb1-d7d39300c40d-attr-18-type" class="er entityLabel">String</text><rect height="21" width="74.32443237304688" y="381" x="54.113128662109375" class="er attributeBoxEven"/><text style="dominant-baseline: middle; font-size: 10.2px;" transform="translate(59.113128662109375,391.5)" y="0" x="0" id="text-entity-Product-689791cd-8625-4530-8fb1-d7d39300c40d-attr-18-name" class="er entityLabel">costPrice</text><rect height="21" width="23.79498291015625" y="381" x="128.43756103515625" class="er attributeBoxEven"/><text style="dominant-baseline: middle; font-size: 10.2px;" transform="translate(133.43756103515625,391.5)" y="0" x="0" id="text-entity-Product-689791cd-8625-4530-8fb1-d7d39300c40d-attr-18-key" class="er entityLabel"/><rect height="21" width="54.113128662109375" y="402" x="0" class="er attributeBoxOdd"/><text style="dominant-baseline: middle; font-size: 10.2px;" transform="translate(5,412.5)" y="0" x="0" id="text-entity-Product-689791cd-8625-4530-8fb1-d7d39300c40d-attr-19-type" class="er entityLabel">String</text><rect height="21" width="74.32443237304688" y="402" x="54.113128662109375" class="er attributeBoxOdd"/><text style="dominant-baseline: middle; font-size: 10.2px;" transform="translate(59.113128662109375,412.5)" y="0" x="0" id="text-entity-Product-689791cd-8625-4530-8fb1-d7d39300c40d-attr-19-name" class="er entityLabel">salePrice</text><rect height="21" width="23.79498291015625" y="402" x="128.43756103515625" class="er attributeBoxOdd"/><text style="dominant-baseline: middle; font-size: 10.2px;" transform="translate(133.43756103515625,412.5)" y="0" x="0" id="text-entity-Product-689791cd-8625-4530-8fb1-d7d39300c40d-attr-19-key" class="er entityLabel"/><rect height="21" width="54.113128662109375" y="423" x="0" class="er attributeBoxEven"/><text style="dominant-baseline: middle; font-size: 10.2px;" transform="translate(5,433.5)" y="0" x="0" id="text-entity-Product-689791cd-8625-4530-8fb1-d7d39300c40d-attr-20-type" class="er entityLabel">DateTime</text><rect height="21" width="74.32443237304688" y="423" x="54.113128662109375" class="er attributeBoxEven"/><text style="dominant-baseline: middle; font-size: 10.2px;" transform="translate(59.113128662109375,433.5)" y="0" x="0" id="text-entity-Product-689791cd-8625-4530-8fb1-d7d39300c40d-attr-20-name" class="er entityLabel">createdAt</text><rect height="21" width="23.79498291015625" y="423" x="128.43756103515625" class="er attributeBoxEven"/><text style="dominant-baseline: middle; font-size: 10.2px;" transform="translate(133.43756103515625,433.5)" y="0" x="0" id="text-entity-Product-689791cd-8625-4530-8fb1-d7d39300c40d-attr-20-key" class="er entityLabel"/></g></svg>